#!OML:ASF I:\Actors\actors\Patient Classification 2\Patient 1\Session 1\actor1.ASF
:FULLY-SPECIFIED
:DEGREES
340
root -1.22969 18.075 5.51372 -4.81578 -0.515764 -3.68718
lowerback 7.13102 1.10182 6.03038
upperback 1.39759 2.04073 4.32822
thorax -2.50159 0.982933 0.911812
lowerneck -7.27774 -0.833058 2.59981
upperneck 34.5548 -1.78092 0.0704747
head 12.6455 -0.409645 -0.647656
rclavicle 7.83957e-015 -1.74931e-014
rhumerus -36.1272 39.7048 -90.6142
rradius 113.052
rwrist 25.7307
rhand -10.1114 -18.2827
rfingers 7.12502
rthumb 15.8764 -47.6518
lclavicle 7.83957e-015 -1.74931e-014
lhumerus -18.4381 -38.2274 68.3927
lradius 112.334
lwrist 41.6147
lhand -22.5053 -21.2338
lfingers 7.12502
lthumb 3.92085 8.70991
rfemur 13.957 -5.51957 19.3667
rtibia -3.18055e-014
rfoot -15.8494 -7.12491
rtoes 7.14806
lfemur 21.8175 -5.2658 -12.9436
ltibia -19.0078
lfoot -0.977152 16.2086
ltoes -15.055
341
root -1.2282 18.0721 5.5154 -4.88535 -0.497484 -3.66906
lowerback 6.98691 1.10498 5.99192
upperback 1.46715 2.01285 3.9512
thorax -2.33683 0.972801 0.548672
lowerneck -7.3291 -1.27801 1.89611
upperneck 34.3676 -2.37164 0.323966
head 12.5797 -0.737579 -0.499802
rclavicle 9.52924e-015 2.78299e-014
rhumerus -35.6222 35.2313 -91.131
rradius 111.376
rwrist 26.9908
rhand -7.88032 -21.7424
rfingers 7.12502
rthumb 18.024 -50.9272
lclavicle 9.52924e-015 2.78299e-014
lhumerus -20.6565 -36.5412 74.4219
lradius 112.067
lwrist 45.6401
lhand -21.5153 -16.9935
lfingers 7.12502
lthumb 4.87678 12.9303
rfemur 14.0444 -5.5329 19.3321
rtibia 1.90833e-014
rfoot -15.847 -7.15195
rtoes 7.02411
lfemur 21.9166 -5.16932 -12.9563
ltibia -19.0616
lfoot -0.934649 16.0978
ltoes -14.947
342
root -1.22793 18.0686 5.51315 -4.98839 -0.460696 -3.63903
lowerback 6.23888 1.18725 5.3939
upperback 1.98472 1.98133 3.91511
thorax -1.40374 0.984516 0.869774
lowerneck -7.6889 -1.80453 0.937362
upperneck 33.9222 -3.04314 0.627341
head 12.483 -1.128 -0.301085
rclavicle -1.86858e-014 3.97569e-015
rhumerus -34.0963 31.198 -90.7619
rradius 109.607
rwrist 27.6859
rhand -6.92092 -23.0167
rfingers 7.12502
rthumb 18.9469 -52.1139
lclavicle -1.86858e-014 3.97569e-015
lhumerus -21.348 -34.6009 79.8208
lradius 111.121
lwrist 49.2197
lhand -20.4515 -13.2602
lfingers 7.12502
lthumb 5.90396 16.6375
rfemur 14.1683 -5.56389 19.2832
rtibia 2.06736e-014
rfoot -15.8428 -7.16344
rtoes 6.80177
lfemur 22.0473 -5.09891 -12.986
ltibia -19.1311
lfoot -0.830621 15.9901
ltoes -15.1855
343
root -1.22831 18.0655 5.50741 -5.09681 -0.356693 -3.63067
lowerback 6.29694 1.15329 5.42912
upperback 2.00555 1.93125 3.36497
thorax -1.39528 0.960656 0.284682
lowerneck -7.84963 -2.28674 0.414247
upperneck 33.7989 -3.85748 1.27993
head 12.4948 -1.4803 -0.0653089
rclavicle -7.87684e-015 -2.70347e-014
rhumerus -32.569 28.3613 -91.0568
rradius 107.506
rwrist 26.7183
rhand -7.8061 -23.9001
rfingers 7.12502
rthumb 18.0954 -53.0784
lclavicle -7.87684e-015 -2.70347e-014
lhumerus -22.0289 -33.3041 83.9738
lradius 109.737
lwrist 52.0638
lhand -19.4476 -10.251
lfingers 7.12502
lthumb 6.87308 19.6174
rfemur 14.2902 -5.66456 19.2525
rtibia -3.65764e-014
rfoot -15.8087 -7.17385
rtoes 6.64406
lfemur 22.1633 -5.06589 -12.9919
ltibia -19.2106
lfoot -0.663778 15.8656
ltoes -15.6634
344
root -1.227 18.066 5.49959 -5.1468 -0.125711 -3.66784
lowerback 6.22497 1.12002 5.08403
upperback 1.99692 1.85687 3.133
thorax -1.37047 0.924429 0.243934
lowerneck -7.8849 -2.76072 -0.294958
upperneck 33.6914 -4.5652 1.77692
head 12.497 -1.82676 0.157613
rclavicle 1.10325e-014 7.15625e-015
rhumerus -31.2041 26.2223 -91.1295
rradius 105.272
rwrist 23.7339
rhand -9.14814 -25.3691
rfingers 7.12502
rthumb 16.8038 -54.6619
lclavicle 1.10325e-014 7.15625e-015
lhumerus -22.2084 -32.1149 87.9597
lradius 107.825
lwrist 53.7623
lhand -18.9131 -8.55428
lfingers 7.12502
lthumb 7.38905 21.2967
rfemur 14.3479 -5.89458 19.2548
rtibia -2.38542e-014
rfoot -15.7664 -7.20726
rtoes 6.61472
lfemur 22.1671 -5.03526 -12.9373
ltibia -19.3024
lfoot -0.422716 15.6533
ltoes -15.93
345
root -1.22677 18.0691 5.49179 -5.15686 0.148118 -3.69259
lowerback 6.11256 1.04757 4.65553
upperback 2.00004 1.72365 2.95665
thorax -1.31684 0.859286 0.312318
lowerneck -8.05836 -3.1509 -0.976002
upperneck 33.6278 -5.10752 2.12033
head 12.5479 -2.11245 0.333936
rclavicle -1.78533e-014 -3.4191e-014
rhumerus -29.7034 24.7887 -91.0991
rradius 103.366
rwrist 15.0177
rhand -5.97415 -28.4183
rfingers 7.12502
rthumb 19.8572 -57.4238
lclavicle -1.78533e-014 -3.4191e-014
lhumerus -21.9345 -31.2425 91.3507
lradius 105.688
lwrist 53.8997
lhand -18.9328 -8.30306
lfingers 7.12502
lthumb 7.36998 21.5486
rfemur 14.3639 -6.16356 19.2344
rtibia 2.06736e-014
rfoot -15.7539 -7.23046
rtoes 6.486
lfemur 22.117 -5.13165 -12.9173
ltibia -19.408
lfoot -0.215136 15.5224
ltoes -15.992
346
root -1.2277 18.0729 5.48595 -5.12763 0.473298 -3.78711
lowerback 5.91959 0.932207 4.22476
upperback 2.06362 1.52797 2.87671
thorax -1.159 0.76467 0.487811
lowerneck -8.36977 -3.47128 -1.56274
upperneck 33.4333 -5.46385 2.175
head 12.561 -2.33909 0.403597
rclavicle -9.93923e-015 -1.27222e-014
rhumerus -28.3492 24.7695 -91.4272
rradius 101.763
rwrist -0.0183203
rhand -7.36674 -35.9469
rfingers 7.12502
rthumb 18.5181 -65.0855
lclavicle -9.93923e-015 -1.27222e-014
lhumerus -21.2696 -30.8255 94.1307
lradius 103.357
lwrist 51.3896
lhand -19.4525 -8.76024
lfingers 7.12502
lthumb 6.86836 21.1084
rfemur 14.3419 -6.49039 19.283
rtibia 2.54444e-014
rfoot -15.7851 -7.20294
rtoes 6.55749
lfemur 22.0224 -5.41862 -12.8506
ltibia -19.5077
lfoot -0.0910668 15.5101
ltoes -16.2272
347
root -1.22933 18.0774 5.48277 -5.04514 0.889858 -3.95196
lowerback 5.64296 0.786126 3.92756
upperback 2.10742 1.29675 2.78891
thorax -0.969843 0.652054 0.583315
lowerneck -8.62061 -3.73805 -2.13372
upperneck 33.1897 -5.75796 2.28996
head 12.5441 -2.52883 0.502012
rclavicle 2.0686e-014 1.74931e-014
rhumerus -26.9952 24.6236 -91.7446
rradius 101.331
rwrist -20.6619
rhand -8.30305 -42.7962
rfingers 7.12502
rthumb 17.6172 -72.018
lclavicle 2.0686e-014 1.74931e-014
lhumerus -20.2783 -30.9737 96.2476
lradius 100.669
lwrist 45.4054
lhand -18.5818 -13.3022
lfingers 7.12502
lthumb 7.70878 16.5372
rfemur 14.2748 -6.91677 19.4063
rtibia -4.29375e-014
rfoot -15.8442 -7.16345
rtoes 6.77974
lfemur 21.8515 -5.79436 -12.7061
ltibia -19.5891
lfoot 0.0166334 15.4932
ltoes -16.4465
348
root -1.2333 18.0804 5.47989 -4.97955 1.19281 -4.04591
lowerback 5.46493 0.660241 3.69464
upperback 2.09108 1.10456 2.58606
thorax -0.89175 0.556931 0.518798
lowerneck -8.7541 -3.98108 -2.78728
upperneck 33.0109 -6.089 2.67343
head 12.5479 -2.71191 0.713644
rclavicle 8.49804e-015 4.45278e-014
rhumerus -25.6751 24.0718 -92.1078
rradius 101.166
rwrist -41.1779
rhand -11.0567 -46.0238
rfingers 7.12502
rthumb 14.9658 -75.463
lclavicle 8.49804e-015 4.45278e-014
lhumerus -19.0379 -31.491 97.5518
lradius 97.6128
lwrist 36.4488
lhand -18.0939 -17.8073
lfingers 7.12502
lthumb 8.17972 12.0144
rfemur 14.2157 -7.22492 19.4733
rtibia 3.97569e-014
rfoot -15.8633 -7.11436
rtoes 7.20121
lfemur 21.7302 -6.07285 -12.6208
ltibia -19.6652
lfoot 0.0975165 15.4961
ltoes -16.3106
349
root -1.22861 18.084 5.47284 -4.92975 1.28947 -4.07623
lowerback 5.3622 0.552775 3.61192
upperback 2.02884 0.950375 2.30895
thorax -0.898089 0.479869 0.29
lowerneck -8.66635 -4.21979 -3.37899
upperneck 32.7809 -6.39437 2.95042
head 12.4803 -2.89314 0.881634
rclavicle -9.01985e-015 -2.06736e-014
rhumerus -24.3032 23.4231 -92.4676
rradius 100.488
rwrist -55.7909
rhand -13.5831 -48.9263
rfingers 7.12502
rthumb 12.531 -78.5306
lclavicle -9.01985e-015 -2.06736e-014
lhumerus -17.6059 -32.0844 98.0675
lradius 94.2563
lwrist 26.0005
lhand -18.0285 -23.2124
lfingers 7.12502
lthumb 8.24283 6.60681
rfemur 14.1173 -7.31476 19.4688
rtibia -2.70347e-014
rfoot -15.7696 -7.1089
rtoes 7.38099
lfemur 21.6592 -6.377 -12.6639
ltibia -19.7298
lfoot 0.0856366 15.7268
ltoes -15.9828
350
root -1.22577 18.0881 5.46663 -4.84416 1.29819 -4.11519
lowerback 5.10374 0.451434 3.52089
upperback 1.91627 0.798156 2.05852
thorax -0.87085 0.403664 0.0942995
lowerneck -8.29231 -4.44639 -3.9813
upperneck 32.5694 -6.67423 3.17611
head 12.3612 -3.07495 1.04187
rclavicle -1.03368e-014 -3.02153e-014
rhumerus -23.0833 23.0871 -92.9228
rradius 99.6642
rwrist -65.3487
rhand -15.6774 -51.9515
rfingers 7.12502
rthumb 10.5114 -81.6687
lclavicle -1.03368e-014 -3.02153e-014
lhumerus -15.9707 -32.7735 97.9106
lradius 90.7144
lwrist 15.857
lhand -18.8244 -29.3402
lfingers 7.12502
lthumb 7.47461 0.507743
rfemur 13.9808 -7.32327 19.5027
rtibia -3.33958e-014
rfoot -15.6961 -7.13112
rtoes 7.23486
lfemur 21.5665 -6.61128 -12.6801
ltibia -19.7659
lfoot 0.0480027 15.9606
ltoes -15.9962
351
root -1.24132 18.0892 5.46881 -4.72514 1.50402 -4.19358
lowerback 4.6868 0.283389 3.18613
upperback 1.94927 0.534874 1.86664
thorax -0.612376 0.274986 0.102035
lowerneck -8.50037 -4.72449 -4.71969
upperneck 32.6671 -7.06707 3.60527
head 12.5177 -3.28613 1.27248
rclavicle -5.06901e-015 3.77691e-015
rhumerus -21.4216 22.7332 -93.0736
rradius 98.2964
rwrist -69.618
rhand -15.8228 -53.501
rfingers 7.12502
rthumb 10.3711 -83.2252
lclavicle -5.06901e-015 3.77691e-015
lhumerus -13.5827 -33.6511 96.8871
lradius 87.1659
lwrist 7.52741
lhand -20.0344 -35.3606
lfingers 7.12502
lthumb 6.30657 -5.47444
rfemur 13.9099 -7.55 19.6279
rtibia -1.74931e-014
rfoot -15.7622 -7.07463
rtoes 7.34592
lfemur 21.4053 -6.67534 -12.5153
ltibia -19.7728
lfoot 0.0984316 15.8234
ltoes -16.32
